<svg xmlns="http://www.w3.org/2000/svg" viewBox="0 0 288.8 36.6"><defs><style>.cls-1{fill:#fff;}</style></defs><g id="Layer_2" data-name="Layer 2"><g id="Layer_1-2" data-name="Layer 1"><path class="cls-1" d="M58.32,22H52.18v9.37a4.38,4.38,0,0,1-1,3,3.33,3.33,0,0,1-4.83,0,4.34,4.34,0,0,1-.93-3V5.86a4.18,4.18,0,0,1,1-3.16,4.62,4.62,0,0,1,3.23-.94h8.6a22.59,22.59,0,0,1,5.86.58,8.63,8.63,0,0,1,3.51,1.88,8.38,8.38,0,0,1,2.25,3.2,11.36,11.36,0,0,1,.77,4.27q0,5.06-3.12,7.66C65.52,21.09,62.42,22,58.32,22ZM56.69,6.79H52.18V16.9h4.51a13.53,13.53,0,0,0,4-.49,4.72,4.72,0,0,0,2.43-1.63,4.9,4.9,0,0,0,.83-3,5,5,0,0,0-1.28-3.56Q61.18,6.79,56.69,6.79Z"/><path class="cls-1" d="M97.18,22.88A14.6,14.6,0,0,1,96.33,28a11.33,11.33,0,0,1-2.49,4A10.86,10.86,0,0,1,90,34.52a13.81,13.81,0,0,1-5.08.89,13.38,13.38,0,0,1-5-.9A11.18,11.18,0,0,1,73.49,28a14.65,14.65,0,0,1-.84-5.07,14.52,14.52,0,0,1,.86-5.12,11.1,11.1,0,0,1,2.46-4,10.69,10.69,0,0,1,3.88-2.54,14.72,14.72,0,0,1,10.11,0,11.14,11.14,0,0,1,3.91,2.57,11.34,11.34,0,0,1,2.47,4A14.75,14.75,0,0,1,97.18,22.88Zm-6.18,0A9.23,9.23,0,0,0,89.34,17a5.41,5.41,0,0,0-4.46-2.09,5.56,5.56,0,0,0-3.18.93,5.91,5.91,0,0,0-2.12,2.77,11.18,11.18,0,0,0-.75,4.26,11.13,11.13,0,0,0,.74,4.22,6,6,0,0,0,2.1,2.77,5.44,5.44,0,0,0,3.21,1,5.37,5.37,0,0,0,4.46-2.11A9.2,9.2,0,0,0,91,22.88Z"/><path class="cls-1" d="M122.53,23.33v8.2a4.2,4.2,0,0,1-.88,2.91,3,3,0,0,1-2.32,1,2.89,2.89,0,0,1-2.27-1,4.25,4.25,0,0,1-.87-2.91V21.71A30.39,30.39,0,0,0,116,18.1a3.84,3.84,0,0,0-.86-2.11,2.73,2.73,0,0,0-2.21-.83c-2,0-3.34.7-4,2.08a14.63,14.63,0,0,0-1,6v8.33a4.26,4.26,0,0,1-.87,2.9,2.92,2.92,0,0,1-2.29,1,3,3,0,0,1-2.29-1,4.16,4.16,0,0,1-.89-2.9V13.9a3.82,3.82,0,0,1,.8-2.64,2.69,2.69,0,0,1,2.11-.9,2.89,2.89,0,0,1,2.11.84,3.2,3.2,0,0,1,.85,2.34v.59A10.74,10.74,0,0,1,111,11.3a9.06,9.06,0,0,1,4.06-.9,8.06,8.06,0,0,1,4,.93,7.15,7.15,0,0,1,2.76,2.8,10.51,10.51,0,0,1,3.34-2.81,8.51,8.51,0,0,1,4-.92,9.06,9.06,0,0,1,4.36,1,6.43,6.43,0,0,1,2.73,2.85A13.12,13.12,0,0,1,137,19.5v12a4.25,4.25,0,0,1-.88,2.91,3,3,0,0,1-2.33,1,3,3,0,0,1-2.29-1,4.21,4.21,0,0,1-.89-2.9V21.17A24,24,0,0,0,130.4,18a3.66,3.66,0,0,0-.91-2,2.9,2.9,0,0,0-2.26-.82,4.1,4.1,0,0,0-2.32.73,4.86,4.86,0,0,0-1.7,1.94A15.41,15.41,0,0,0,122.53,23.33Z"/><path class="cls-1" d="M166,22.88a14.6,14.6,0,0,1-.86,5.08,11.31,11.31,0,0,1-2.48,4,11,11,0,0,1-3.89,2.56,13.77,13.77,0,0,1-5.08.89,13.38,13.38,0,0,1-5-.9A11.13,11.13,0,0,1,142.32,28a14.42,14.42,0,0,1-.85-5.07,14.75,14.75,0,0,1,.86-5.12,11.1,11.1,0,0,1,2.46-4,10.77,10.77,0,0,1,3.88-2.54,14.72,14.72,0,0,1,10.11,0,10.89,10.89,0,0,1,6.38,6.54A14.75,14.75,0,0,1,166,22.88Zm-6.19,0A9.23,9.23,0,0,0,158.16,17a5.4,5.4,0,0,0-4.46-2.09,5.56,5.56,0,0,0-3.18.93,6,6,0,0,0-2.12,2.77,11.18,11.18,0,0,0-.74,4.26,11.13,11.13,0,0,0,.73,4.22,6,6,0,0,0,2.1,2.77,5.44,5.44,0,0,0,3.21,1,5.36,5.36,0,0,0,4.46-2.11A9.2,9.2,0,0,0,159.82,22.88Z"/><path class="cls-1" d="M170.36,10.9h1.47V9.05a11.86,11.86,0,0,1,.73-4.6A4.68,4.68,0,0,1,175.05,2a12,12,0,0,1,4.79-.78q5.4,0,5.4,2.64a2.09,2.09,0,0,1-.57,1.47,1.74,1.74,0,0,1-1.33.61,9.88,9.88,0,0,1-1.24-.14,10,10,0,0,0-1.49-.13c-1.11,0-1.83.33-2.14,1A6.55,6.55,0,0,0,178,9.43V10.9h1.51c2.35,0,3.53.7,3.53,2.12,0,1-.32,1.65-.94,1.92a6.73,6.73,0,0,1-2.59.4H178V31.66a4,4,0,0,1-.87,2.79,2.88,2.88,0,0,1-2.24,1,2.81,2.81,0,0,1-2.18-1,4,4,0,0,1-.87-2.79V15.34h-1.69a3.17,3.17,0,0,1-2.12-.62,2,2,0,0,1-.75-1.61C167.27,11.64,168.3,10.9,170.36,10.9Z"/><path class="cls-1" d="M208.71,22.88a14.6,14.6,0,0,1-.85,5.08,11.33,11.33,0,0,1-2.49,4,11,11,0,0,1-3.88,2.56,13.81,13.81,0,0,1-5.08.89,13.38,13.38,0,0,1-5-.9A11.18,11.18,0,0,1,185,28a14.65,14.65,0,0,1-.84-5.07,14.75,14.75,0,0,1,.85-5.12,11.26,11.26,0,0,1,2.47-4,10.69,10.69,0,0,1,3.88-2.54,14.72,14.72,0,0,1,10.11,0,11,11,0,0,1,3.9,2.57,11.22,11.22,0,0,1,2.48,4A14.75,14.75,0,0,1,208.71,22.88Zm-6.18,0A9.23,9.23,0,0,0,200.87,17a5.41,5.41,0,0,0-4.46-2.09,5.56,5.56,0,0,0-3.18.93,5.91,5.91,0,0,0-2.12,2.77,11.18,11.18,0,0,0-.75,4.26,11.13,11.13,0,0,0,.74,4.22,6,6,0,0,0,2.09,2.77,5.47,5.47,0,0,0,3.22,1,5.37,5.37,0,0,0,4.46-2.11A9.2,9.2,0,0,0,202.53,22.88Z"/><path class="cls-1" d="M235.66,27.78a5.39,5.39,0,0,1-.68,2.46,8.53,8.53,0,0,1-2.1,2.5,10.83,10.83,0,0,1-3.56,1.9,15.12,15.12,0,0,1-4.83.73q-5.72,0-8.92-3.33a12.37,12.37,0,0,1-3.2-8.93,14.65,14.65,0,0,1,1.47-6.7,10.45,10.45,0,0,1,4.24-4.51,14.44,14.44,0,0,1,11-.89,11.41,11.41,0,0,1,3.38,1.81,8.42,8.42,0,0,1,2.12,2.36,4.65,4.65,0,0,1,.74,2.33,2.45,2.45,0,0,1-.83,1.87,2.78,2.78,0,0,1-2,.77,2,2,0,0,1-1.28-.39,6.32,6.32,0,0,1-1.14-1.28,9.31,9.31,0,0,0-2.36-2.57,5.8,5.8,0,0,0-7.53,1.27A9.28,9.28,0,0,0,218.55,23a11.45,11.45,0,0,0,.43,3.19,7.45,7.45,0,0,0,1.24,2.49,5.37,5.37,0,0,0,2,1.55,5.88,5.88,0,0,0,2.53.53,5.71,5.71,0,0,0,3.17-.85,7.54,7.54,0,0,0,2.33-2.62,6.29,6.29,0,0,1,1.22-1.63,2.33,2.33,0,0,1,1.61-.58,2.38,2.38,0,0,1,1.87.85A2.74,2.74,0,0,1,235.66,27.78Z"/><path class="cls-1" d="M257,31.93v-.79a13.3,13.3,0,0,1-2.33,2.35,8.63,8.63,0,0,1-2.66,1.41,10.71,10.71,0,0,1-3.29.47,8.5,8.5,0,0,1-4-.93A6.76,6.76,0,0,1,242,31.89a11.26,11.26,0,0,1-1.15-5.64V14a4,4,0,0,1,.83-2.77,2.84,2.84,0,0,1,2.21-.91,2.91,2.91,0,0,1,2.26.92A4,4,0,0,1,247,14V23.9a15.26,15.26,0,0,0,.36,3.6,4.29,4.29,0,0,0,1.3,2.28,3.7,3.7,0,0,0,2.54.82,5.23,5.23,0,0,0,2.93-.92,5.38,5.38,0,0,0,2-2.42,19.23,19.23,0,0,0,.52-5.73V14a3.9,3.9,0,0,1,.86-2.76,2.88,2.88,0,0,1,2.23-.92,2.83,2.83,0,0,1,2.21.91,4,4,0,0,1,.84,2.77V31.89a3.84,3.84,0,0,1-.8,2.64,2.86,2.86,0,0,1-4.16,0A3.71,3.71,0,0,1,257,31.93Z"/><path class="cls-1" d="M288.8,27.35a7.13,7.13,0,0,1-4.91,7.12,16.33,16.33,0,0,1-5.9.94,14.32,14.32,0,0,1-5.69-1,8.25,8.25,0,0,1-3.5-2.53,5.16,5.16,0,0,1-1.13-3.06,2.37,2.37,0,0,1,.72-1.74,2.48,2.48,0,0,1,1.83-.72,2.1,2.1,0,0,1,1.49.47,5.05,5.05,0,0,1,1,1.33A6.8,6.8,0,0,0,275,30.6a6.85,6.85,0,0,0,3.6.82,5.2,5.2,0,0,0,3-.83,2.31,2.31,0,0,0,1.18-1.88,2.55,2.55,0,0,0-1.23-2.37,15.35,15.35,0,0,0-4.05-1.43,32.89,32.89,0,0,1-5.18-1.65,8.55,8.55,0,0,1-3.19-2.3,5.21,5.21,0,0,1-1.2-3.49,6.15,6.15,0,0,1,1.11-3.5,7.54,7.54,0,0,1,3.26-2.63,12.41,12.41,0,0,1,5.2-1,17.12,17.12,0,0,1,4.3.49A11.06,11.06,0,0,1,285,12.18,6.67,6.67,0,0,1,286.94,14a3.6,3.6,0,0,1,.66,2,2.27,2.27,0,0,1-.71,1.74,2.82,2.82,0,0,1-2,.68,2.42,2.42,0,0,1-1.61-.55,10.72,10.72,0,0,1-1.53-1.62,5.48,5.48,0,0,0-1.64-1.44,5.12,5.12,0,0,0-2.58-.55,5,5,0,0,0-2.77.71,2.09,2.09,0,0,0-1.11,1.78,1.94,1.94,0,0,0,.81,1.59,6.77,6.77,0,0,0,2.19,1c.92.28,2.18.61,3.79,1a19.72,19.72,0,0,1,4.69,1.67,7.77,7.77,0,0,1,2.75,2.29A5,5,0,0,1,288.8,27.35Z"/><path class="cls-1" d="M18.3,0A18.3,18.3,0,1,0,36.6,18.3,18.31,18.31,0,0,0,18.3,0ZM14.64,27.45,5.49,18.3l2.58-2.58,6.57,6.55L28.53,8.38,31.11,11Z"/></g></g></svg>